<svg fill="none" height="16" viewBox="0 0 16 16" width="16" xmlns="http://www.w3.org/2000/svg"><path d="m2.22785 7.35986c.46293 0 .78842-.1085.97649-.3255.1302-.15913.1953-.3906.1953-.6944 0-.1302-.01447-.32188-.0434-.57504s-.0434-.44846-.0434-.5859c0-.13743-.00723-.34358-.0217-.61844-.02893-.24593-.0434-.41953-.0434-.5208 0-.69439.20253-1.20795.60759-1.54069.40507-.33273.9765-.49909 1.71429-.49909h.5425v1.28029h-.2821c-.31827 0-.54611.09042-.68355.27125-.13743.18083-.20614.45208-.20614.81374 0 .0868.01446.217.04339.3906.02894.217.0434.38336.0434.49909 0 .0868.00724.22423.0217.4123.02894.2604.0434.46293.0434.60759 0 .54973-.11573.96203-.34719 1.23689-.20253.24593-.5208.41953-.95479.5208.43399.11573.75226.28933.95479.52079.23146.28934.34719.70163.34719 1.2369 0 .15913-.01446.36886-.0434.62926-.02893.1881-.03978.3255-.03255.4123.00724.0868-.00361.2387-.03255.4557-.02893.1592-.04339.2749-.04339.3472 0 .3617.06871.6329.20614.8138.13744.1808.36528.2712.68355.2712h.2821v1.2803h-.5425c-1.50452 0-2.25678-.6799-2.25678-2.0398 0-.4918.02532-.8716.07595-1.1392.05063-.2677.07595-.6546.07595-1.16096 0-.67993-.38337-1.0199-1.15009-1.0199zm11.54435 1.15009c-.7668 0-1.1501.33996-1.1501 1.01989 0 .1302.0108.32188.0325.57506.0217.2531.0326.4448.0326.575.0434.2749.0651.6583.0651 1.1501 0 1.3599-.7668 2.0398-2.3002 2.0398h-.54252v-1.1501h.26042c.3182 0 .5461-.0904.6835-.2712.1375-.1809.2062-.4521.2062-.8138 0-.3616-.0217-.6365-.0651-.8246 0-.1157-.0145-.2857-.0434-.5099-.029-.2243-.0434-.39423-.0434-.50996 0-.53527.1157-.94756.3472-1.2369.2025-.23146.5208-.40506.9548-.52079-.434-.10127-.7523-.27487-.9548-.5208-.2315-.27486-.3472-.68716-.3472-1.23689 0-.14466.0144-.34719.0434-.60759.0289-.18807.0434-.3255.0434-.4123.0434-.23146.0651-.52079.0651-.86799s-.0724-.60759-.217-.78119c-.1447-.1736-.3689-.2821-.6727-.3255h-.26042v-1.28029h.54252c.7233 0 1.2875.16636 1.6926.49909.405.33274.6076.8463.6076 1.54069 0 .1302-.0109.32188-.0326.57505-.0217.25316-.0325.44484-.0325.57504-.0434.27487-.0724.65823-.0868 1.15009.0144.3038.0795.53527.1953.6944.188.217.5135.3255.9765.3255z" fill="#c5c5c5"/></svg>