<svg height="16" width="16" xmlns="http://www.w3.org/2000/svg"><path d="m13.64 7.396-1.471-4.498-1.463.863.381-1.761h-4.53l.379 1.762-1.463-.864-1.473 4.498 1.682.158-1.169 1.007.5.439h-3.013v5h5v-3.253l.978.859.842-1.881.841 1.877 3.483-3.04-1.176-1.008z" fill="#f6f6f6"/><g fill="#424242"><path d="m12.301 6.518-2.772.262 2.086 1.788-1.594 1.392-1.201-2.682-1.201 2.682-1.583-1.392 2.075-1.788-2.771-.262.696-2.126 2.358 1.392-.599-2.784h2.053l-.602 2.783 2.359-1.392z"/><path d="m3 10h3v3h-3z"/></g></svg>