<svg preserveAspectRatio="xMinYMin meet" viewBox="0 0 1150 540.6" xmlns="http://www.w3.org/2000/svg"><g><path d="m880.199 2.8c147.901 0 267.701 119.8 267.701 267.7 0 147.8-119.8 267.7-267.7 267.7h-590.1c-21.1 0-38.2-17.1-38.2-38.2s17.1-38.2 38.2-38.2h137.5c21 0 38.1-17.1 38.1-38.2s-17.1-38.2-38.1-38.2h-30.601c-21.099 0-38.199-17.1-38.199-38.2s17.1-38.2 38.2-38.2h91.703c21.215-.059 37.67-17.35 38.197-38.2 0-21.1-17.1-38.2-38.2-38.2h-320.9c-21.1 0-38.2-17.1-38.2-38.2s17.1-38.2 38.2-38.2h236.804c21.214-.059 37.669-17.35 38.196-38.2 0-21.1-17.1-38.2-38.2-38.2h-53.4c-21.1 0-38.2-17.1-38.2-38.2s17.1-39.2 38.2-39.2zm-42.799 89.2c-82.2 0-148.7 66.6-148.7 148.7v59.5c0 82.2 66.5 148.7 148.7 148.7 82.1 0 148.7-66.5 148.7-148.7v-59.5c0-82.1-66.6-148.7-148.7-148.7zm50.8 140.6c19.8 0 35.9 16.1 35.9 35.9v4.6c0 19.8-16.1 35.9-35.9 35.9h-111.6c-19.8 0-35.9-16.1-35.9-35.9v-4.6c0-19.8 16.1-35.9 35.9-35.9z"/><path d="m170.1 461.8c19.9 0 35.9 16 35.9 35.9v4.6c0 19.8-16 35.9-35.9 35.9h-132.1c-19.8 0-35.9-16.1-35.9-35.9v-4.6c0-19.9 16.1-35.9 35.9-35.9z"/><path d="m231.3 3.4c19.8 0 35.8 16.1 35.8 35.9v4.7c0 19.8-16 35.8-35.8 35.8h-147.5c-19.8 0-35.9-16-35.9-35.8v-4.7c0-19.8 16.1-35.9 35.9-35.9z"/><path d="m277.1 309c19.8 0 35.9 16.1 35.9 35.9v4.6c0 19.8-16.1 35.9-35.9 35.9h-81c-19.8 0-35.9-16.1-35.9-35.9v-4.6c0-19.8 16.1-35.9 35.9-35.9z"/></g></svg>