<svg fill="#f6f6f6" height="28" viewBox="0 0 28 28" width="28" xmlns="http://www.w3.org/2000/svg" xmlns:xlink="http://www.w3.org/1999/xlink"><clipPath id="a"><path d="m0 0h28v28h-28z"/></clipPath><g clip-path="url(#a)"><path d="m15.1673 18.0687v4.956c0 .539.105 1.4753-.4358 1.4753h-1.8987v-1.1673h1.1672v-3.7205l-.2012-.21c-.7384.6781-1.698 1.0647-2.7002 1.0878-1.0022.0232-1.97866-.3186-2.7476-.9618-1.351-1.3545-1.21274-3.1955.25375-5.5282h-3.93749v1.1672h-1.16725v-1.8987c0-.5408.93625-.4358 1.47525-.4358h4.788zm-3.5-12.23595h-1.1673v-1.1655h2.275c.5373 0 1.225.25725 1.225.79625v3.9025l.8593 1.0202c.0677-.54641.3313-1.04976.742-1.41662.4106-.36687.9403-.57235 1.491-.57833.1375-.0118.2761.00367.4077.0455v-2.604h1.1673v3.0555c.0357.10329.0945.19711.1718.2744.0773.0773.1711.13606.2744.17185h3.0538v1.1655h-2.6058c.0315 0 .049.175.049.35-.0047.5534-.2094 1.0865-.5764 1.5008s-.8715.6818-1.4203.7532l1.0202.896h3.9043c.539 0 .7962.6807.7962 1.225v2.275h-1.1672v-1.1673h-2.94l-7.56-7.34995zm2.3327-5.83275c-2.7689 0-5.47569.821086-7.77798 2.35943-2.30229 1.53833-4.0967 3.72483-5.15633 6.283-1.05962407 2.55817-1.336871 5.37307-.796678 8.08887.540193 2.7157 1.873568 5.2103 3.831498 7.1682 1.95794 1.9579 4.4525 3.2913 7.16819 3.8315 2.7158.5402 5.5307.2629 8.0889-.7967 2.5581-1.0596 4.7446-2.854 6.283-5.1563 1.5383-2.3023 2.3594-5.0091 2.3594-7.778 0-3.713-1.475-7.27399-4.1005-9.8995-2.6255-2.6255-6.1865-4.1005-9.8995-4.1005zm11.6673 14c.0019 2.6908-.9309 5.2988-2.639 7.378l-16.4063-16.40625c1.70836-1.39906 3.7789-2.2842 5.9707-2.5524s4.4147.09156 6.41 1.03741c1.9953.94586 3.6809 2.43891 4.8608 4.30541 1.1798 1.8665 1.8054 4.02973 1.8038 6.23783zm-23.33454 0c-.0021-2.6909.93075-5.29889 2.639-7.378l16.40624 16.408c-1.7087 1.3984-3.7793 2.283-5.971 2.5507-2.1917.2678-4.4144-.0923-6.40946-1.0382-1.9951-.946-3.68061-2.4389-4.86046-4.3052-1.17986-1.8664-1.80556-4.0293-1.80432-6.2373z" fill="#fff"/></g></svg>